<?xml version="1.0" encoding="UTF-8"?>
<svg width="32" height="32" viewBox="0 0 32 32" fill="none" xmlns="http://www.w3.org/2000/svg">
    <!-- Background Circle -->
    <circle cx="16" cy="16" r="16" fill="#4299E1"/>
    
    <!-- Book -->
    <path d="M8 8C8 6.89543 8.89543 6 10 6H22C23.1046 6 24 6.89543 24 8V24C24 25.1046 23.1046 26 22 26H10C8.89543 26 8 25.1046 8 24V8Z" fill="white"/>
    
    <!-- Book Pages -->
    <path d="M10 8H22V24H10V8Z" fill="#EBF8FF"/>
    
    <!-- Book Lines -->
    <path d="M12 12H20M12 16H20M12 20H16" stroke="#4299E1" stroke-width="1.5" stroke-linecap="round"/>
    
    <!-- Graduation Cap -->
    <path d="M16 4L24 8L16 12L8 8L16 4Z" fill="#2D3748"/>
    <path d="M24 8V14C24 14 20 16 16 16C12 16 8 14 8 14V8" stroke="#2D3748" stroke-width="1.5"/>
</svg> 